<mxfile host="65bd71144e">
    <diagram id="NmZpwLqHl4aigiN6RikR" name="Page-1">
        <mxGraphModel dx="1054" dy="800" grid="0" gridSize="10" guides="1" tooltips="1" connect="1" arrows="1" fold="1" page="1" pageScale="1" pageWidth="1169" pageHeight="827" background="#ffffff" math="0" shadow="0">
            <root>
                <mxCell id="0"/>
                <mxCell id="1" parent="0"/>
                <mxCell id="84" value="" style="rounded=1;whiteSpace=wrap;html=1;labelBackgroundColor=#fcfaff;strokeColor=#000000;fontSize=8;fontColor=#080808;fillColor=none;dashed=1;" parent="1" vertex="1">
                    <mxGeometry x="231.86948176583493" y="38" width="752.1305182341652" height="464.93333333333334" as="geometry"/>
                </mxCell>
                <mxCell id="2" value="&lt;font style=&quot;font-size: 12px;&quot; color=&quot;#080808&quot;&gt;UsuÃ¡rio&lt;/font&gt;" style="shape=umlActor;verticalLabelPosition=bottom;verticalAlign=top;html=1;outlineConnect=0;strokeColor=#0b0a0a;fillColor=none;" parent="1" vertex="1">
                    <mxGeometry x="51" y="159.51666666666665" width="35.81573896353167" height="84.53333333333335" as="geometry"/>
                </mxCell>
                <mxCell id="13" value="" style="rounded=1;whiteSpace=wrap;html=1;labelBackgroundColor=#f5f3f7;strokeColor=#000000;fontSize=8;fontColor=#080808;fillColor=none;" parent="1" vertex="1">
                    <mxGeometry x="355.4337811900192" y="110.91" width="248.91938579654513" height="185.97333333333336" as="geometry"/>
                </mxCell>
                <mxCell id="15" value="&lt;span style=&quot;background-color: rgb(252, 250, 255);&quot;&gt;Horizontal Pod Autoscaling&lt;/span&gt;" style="text;html=1;strokeColor=none;fillColor=none;align=center;verticalAlign=middle;whiteSpace=wrap;rounded=0;labelBackgroundColor=#f5f3f7;fontSize=8;fontColor=#080808;" parent="1" vertex="1">
                    <mxGeometry x="381.40019193857967" y="110.91" width="195.1957773512476" height="63.4" as="geometry"/>
                </mxCell>
                <mxCell id="61" style="edgeStyle=none;html=1;exitX=1;exitY=0.5;exitDx=0;exitDy=0;entryX=0;entryY=0.5;entryDx=0;entryDy=0;strokeColor=#0d0c0c;fontSize=8;fontColor=#080808;" parent="1" source="41" target="13" edge="1">
                    <mxGeometry relative="1" as="geometry"/>
                </mxCell>
                <mxCell id="41" value="&lt;font style=&quot;font-size: 12px;&quot;&gt;Service Load Balance&lt;/font&gt;" style="rounded=1;whiteSpace=wrap;html=1;labelBackgroundColor=#fcfaff;strokeColor=#666666;fontSize=8;fontColor=#333333;fillColor=none;" parent="1" vertex="1">
                    <mxGeometry x="255.14971209213053" y="110.91" width="66.79635316698656" height="183.86" as="geometry"/>
                </mxCell>
                <mxCell id="59" style="edgeStyle=none;html=1;entryX=0;entryY=0.5;entryDx=0;entryDy=0;strokeColor=#0d0c0c;fontSize=8;fontColor=#080808;" parent="1" source="2" target="41" edge="1">
                    <mxGeometry relative="1" as="geometry"/>
                </mxCell>
                <mxCell id="16" value="" style="rounded=1;whiteSpace=wrap;html=1;labelBackgroundColor=#f5f3f7;strokeColor=#000000;fontSize=8;fontColor=#080808;fillColor=none;" parent="1" vertex="1">
                    <mxGeometry x="366.4471209213052" y="174.31" width="63.93109404990404" height="80.30666666666667" as="geometry"/>
                </mxCell>
                <mxCell id="18" value="" style="sketch=0;html=1;dashed=0;whitespace=wrap;fillColor=#2875E2;strokeColor=#ffffff;points=[[0.005,0.63,0],[0.1,0.2,0],[0.9,0.2,0],[0.5,0,0],[0.995,0.63,0],[0.72,0.99,0],[0.5,1,0],[0.28,0.99,0]];verticalLabelPosition=bottom;align=center;verticalAlign=top;shape=mxgraph.kubernetes.icon;prIcon=pod;labelBackgroundColor=#fcfaff;fontSize=8;fontColor=#080808;" parent="1" vertex="1">
                    <mxGeometry x="360.80614203454894" y="161.63" width="27.578119001919386" height="33.461111111111116" as="geometry"/>
                </mxCell>
                <mxCell id="19" value="&lt;font style=&quot;font-size: 12px;&quot;&gt;Pod&lt;br&gt;Backend&lt;/font&gt;" style="text;html=1;strokeColor=none;fillColor=none;align=center;verticalAlign=middle;whiteSpace=wrap;rounded=0;labelBackgroundColor=#fcfaff;fontSize=8;fontColor=#080808;" parent="1" vertex="1">
                    <mxGeometry x="360.80614203454894" y="194.37962222222222" width="75.2130518234165" height="40.153333333333336" as="geometry"/>
                </mxCell>
                <mxCell id="22" value="" style="rounded=1;whiteSpace=wrap;html=1;labelBackgroundColor=#f5f3f7;strokeColor=#000000;fontSize=8;fontColor=#080808;fillColor=none;" parent="1" vertex="1">
                    <mxGeometry x="445.2417466410748" y="174.31" width="63.93109404990404" height="80.30666666666667" as="geometry"/>
                </mxCell>
                <mxCell id="23" value="" style="sketch=0;html=1;dashed=0;whitespace=wrap;fillColor=#2875E2;strokeColor=#ffffff;points=[[0.005,0.63,0],[0.1,0.2,0],[0.9,0.2,0],[0.5,0,0],[0.995,0.63,0],[0.72,0.99,0],[0.5,1,0],[0.28,0.99,0]];verticalLabelPosition=bottom;align=center;verticalAlign=top;shape=mxgraph.kubernetes.icon;prIcon=pod;labelBackgroundColor=#fcfaff;fontSize=8;fontColor=#080808;" parent="1" vertex="1">
                    <mxGeometry x="436.01919385796543" y="161.63" width="27.578119001919386" height="33.461111111111116" as="geometry"/>
                </mxCell>
                <mxCell id="24" value="&lt;font style=&quot;font-size: 12px;&quot;&gt;Pod&lt;br&gt;Backend&lt;/font&gt;" style="text;html=1;strokeColor=none;fillColor=none;align=center;verticalAlign=middle;whiteSpace=wrap;rounded=0;labelBackgroundColor=#fcfaff;fontSize=8;fontColor=#080808;" parent="1" vertex="1">
                    <mxGeometry x="439.6007677543186" y="194.37962222222222" width="75.2130518234165" height="40.153333333333336" as="geometry"/>
                </mxCell>
                <mxCell id="26" value="" style="rounded=1;whiteSpace=wrap;html=1;labelBackgroundColor=#f5f3f7;strokeColor=#000000;fontSize=8;fontColor=#080808;fillColor=none;" parent="1" vertex="1">
                    <mxGeometry x="524.0363723608446" y="174.31" width="63.93109404990404" height="80.30666666666667" as="geometry"/>
                </mxCell>
                <mxCell id="27" value="" style="sketch=0;html=1;dashed=0;whitespace=wrap;fillColor=#2875E2;strokeColor=#ffffff;points=[[0.005,0.63,0],[0.1,0.2,0],[0.9,0.2,0],[0.5,0,0],[0.995,0.63,0],[0.72,0.99,0],[0.5,1,0],[0.28,0.99,0]];verticalLabelPosition=bottom;align=center;verticalAlign=top;shape=mxgraph.kubernetes.icon;prIcon=pod;labelBackgroundColor=#fcfaff;fontSize=8;fontColor=#080808;" parent="1" vertex="1">
                    <mxGeometry x="514.8138195777351" y="161.63" width="27.578119001919386" height="33.461111111111116" as="geometry"/>
                </mxCell>
                <mxCell id="28" value="&lt;font style=&quot;font-size: 12px;&quot;&gt;Pod&lt;br&gt;Backend&lt;/font&gt;" style="text;html=1;strokeColor=none;fillColor=none;align=center;verticalAlign=middle;whiteSpace=wrap;rounded=0;labelBackgroundColor=#fcfaff;fontSize=8;fontColor=#080808;" parent="1" vertex="1">
                    <mxGeometry x="518.3953934740883" y="194.37962222222222" width="75.2130518234165" height="40.153333333333336" as="geometry"/>
                </mxCell>
                <mxCell id="42" value="" style="sketch=0;html=1;dashed=0;whitespace=wrap;fillColor=#2875E2;strokeColor=#ffffff;points=[[0.005,0.63,0],[0.1,0.2,0],[0.9,0.2,0],[0.5,0,0],[0.995,0.63,0],[0.72,0.99,0],[0.5,1,0],[0.28,0.99,0]];verticalLabelPosition=bottom;align=center;verticalAlign=top;shape=mxgraph.kubernetes.icon;prIcon=svc;labelBackgroundColor=#fcfaff;fontSize=8;fontColor=#080808;" parent="1" vertex="1">
                    <mxGeometry x="267.6494049904031" y="117.25" width="41.814875239923225" height="50.72" as="geometry"/>
                </mxCell>
                <mxCell id="43" value="&lt;font style=&quot;font-size: 12px;&quot;&gt;Service Cluster IP&lt;/font&gt;" style="rounded=1;whiteSpace=wrap;html=1;labelBackgroundColor=#fcfaff;strokeColor=#666666;fontSize=8;fontColor=#333333;fillColor=none;" parent="1" vertex="1">
                    <mxGeometry x="659.8675623800384" y="110.91" width="66.79635316698656" height="183.86" as="geometry"/>
                </mxCell>
                <mxCell id="62" style="edgeStyle=none;html=1;exitX=1;exitY=0.5;exitDx=0;exitDy=0;entryX=0;entryY=0.5;entryDx=0;entryDy=0;strokeColor=#0d0c0c;fontSize=8;fontColor=#080808;" parent="1" source="13" target="43" edge="1">
                    <mxGeometry relative="1" as="geometry"/>
                </mxCell>
                <mxCell id="44" value="" style="sketch=0;html=1;dashed=0;whitespace=wrap;fillColor=#2875E2;strokeColor=#ffffff;points=[[0.005,0.63,0],[0.1,0.2,0],[0.9,0.2,0],[0.5,0,0],[0.995,0.63,0],[0.72,0.99,0],[0.5,1,0],[0.28,0.99,0]];verticalLabelPosition=bottom;align=center;verticalAlign=top;shape=mxgraph.kubernetes.icon;prIcon=svc;labelBackgroundColor=#fcfaff;fontSize=8;fontColor=#080808;" parent="1" vertex="1">
                    <mxGeometry x="672.367255278311" y="117.25" width="41.814875239923225" height="50.72" as="geometry"/>
                </mxCell>
                <mxCell id="45" value="" style="rounded=1;whiteSpace=wrap;html=1;labelBackgroundColor=#f5f3f7;strokeColor=#000000;fontSize=8;fontColor=#080808;fillColor=none;" parent="1" vertex="1">
                    <mxGeometry x="774.4779270633397" y="108.79666666666667" width="87.7485604606526" height="189.14333333333335" as="geometry"/>
                </mxCell>
                <mxCell id="63" style="edgeStyle=none;html=1;exitX=1;exitY=0.5;exitDx=0;exitDy=0;entryX=0;entryY=0.5;entryDx=0;entryDy=0;strokeColor=#0d0c0c;fontSize=8;fontColor=#080808;" parent="1" source="43" target="45" edge="1">
                    <mxGeometry relative="1" as="geometry"/>
                </mxCell>
                <mxCell id="46" value="&lt;span style=&quot;background-color: rgb(252, 250, 255);&quot;&gt;StatefulSet&lt;/span&gt;" style="text;html=1;strokeColor=none;fillColor=none;align=center;verticalAlign=middle;whiteSpace=wrap;rounded=0;labelBackgroundColor=#f5f3f7;fontSize=8;fontColor=#080808;" parent="1" vertex="1">
                    <mxGeometry x="720.7543186180422" y="104.57000000000001" width="195.1957773512476" height="63.4" as="geometry"/>
                </mxCell>
                <mxCell id="47" value="" style="rounded=1;whiteSpace=wrap;html=1;labelBackgroundColor=#f5f3f7;strokeColor=#000000;fontSize=8;fontColor=#080808;fillColor=none;" parent="1" vertex="1">
                    <mxGeometry x="785.4912667946257" y="172.19666666666666" width="63.93109404990404" height="80.30666666666667" as="geometry"/>
                </mxCell>
                <mxCell id="48" value="" style="sketch=0;html=1;dashed=0;whitespace=wrap;fillColor=#2875E2;strokeColor=#ffffff;points=[[0.005,0.63,0],[0.1,0.2,0],[0.9,0.2,0],[0.5,0,0],[0.995,0.63,0],[0.72,0.99,0],[0.5,1,0],[0.28,0.99,0]];verticalLabelPosition=bottom;align=center;verticalAlign=top;shape=mxgraph.kubernetes.icon;prIcon=pod;labelBackgroundColor=#fcfaff;fontSize=8;fontColor=#080808;" parent="1" vertex="1">
                    <mxGeometry x="779.8502879078694" y="159.51666666666665" width="27.578119001919386" height="33.461111111111116" as="geometry"/>
                </mxCell>
                <mxCell id="49" value="&lt;font style=&quot;font-size: 12px;&quot;&gt;Pod &lt;br&gt;Mysql&lt;/font&gt;" style="text;html=1;strokeColor=none;fillColor=none;align=center;verticalAlign=middle;whiteSpace=wrap;rounded=0;labelBackgroundColor=#fcfaff;fontSize=8;fontColor=#080808;" parent="1" vertex="1">
                    <mxGeometry x="779.8502879078694" y="192.2662888888889" width="75.2130518234165" height="40.153333333333336" as="geometry"/>
                </mxCell>
                <mxCell id="60" value="&lt;font style=&quot;font-size: 12px;&quot;&gt;RequisiÃ§Ã£o HTTP&lt;/font&gt;" style="text;html=1;strokeColor=none;fillColor=none;align=center;verticalAlign=middle;whiteSpace=wrap;rounded=0;labelBackgroundColor=#fcfaff;fontSize=8;fontColor=#080808;" parent="1" vertex="1">
                    <mxGeometry x="74.28023032629558" y="182.76333333333335" width="152.2168905950096" height="63.4" as="geometry"/>
                </mxCell>
                <mxCell id="66" value="&lt;font style=&quot;font-size: 12px;&quot;&gt;Persistent Volume Claim (PVC)&lt;/font&gt;" style="rounded=1;whiteSpace=wrap;html=1;labelBackgroundColor=#fcfaff;strokeColor=#000000;fontSize=8;fontColor=#080808;fillColor=none;" parent="1" vertex="1">
                    <mxGeometry x="778.059500959693" y="340.5448" width="78.79462571976967" height="126.8" as="geometry"/>
                </mxCell>
                <mxCell id="71" style="edgeStyle=none;html=1;entryX=0.5;entryY=0;entryDx=0;entryDy=0;strokeColor=#0d0c0c;fontSize=8;fontColor=#080808;" parent="1" source="45" target="66" edge="1">
                    <mxGeometry relative="1" as="geometry"/>
                </mxCell>
                <mxCell id="67" value="" style="sketch=0;html=1;dashed=0;whitespace=wrap;fillColor=#2875E2;strokeColor=#ffffff;points=[[0.005,0.63,0],[0.1,0.2,0],[0.9,0.2,0],[0.5,0,0],[0.995,0.63,0],[0.72,0.99,0],[0.5,1,0],[0.28,0.99,0]];verticalLabelPosition=bottom;align=center;verticalAlign=top;shape=mxgraph.kubernetes.icon;prIcon=pvc;labelBackgroundColor=#fcfaff;fontSize=8;fontColor=#080808;" parent="1" vertex="1">
                    <mxGeometry x="760.151631477927" y="308.50666666666666" width="44.769673704414586" height="50.72" as="geometry"/>
                </mxCell>
                <mxCell id="69" value="&lt;font style=&quot;font-size: 12px;&quot;&gt;Persistent Volume (PV)&lt;/font&gt;" style="rounded=1;whiteSpace=wrap;html=1;labelBackgroundColor=#fcfaff;strokeColor=#000000;fontSize=8;fontColor=#080808;fillColor=none;" parent="1" vertex="1">
                    <mxGeometry x="890.8790786948176" y="340.5448" width="78.79462571976967" height="126.8" as="geometry"/>
                </mxCell>
                <mxCell id="72" style="edgeStyle=none;html=1;exitX=1;exitY=0.5;exitDx=0;exitDy=0;entryX=0;entryY=0.5;entryDx=0;entryDy=0;strokeColor=#0d0c0c;fontSize=8;fontColor=#080808;" parent="1" source="66" target="69" edge="1">
                    <mxGeometry relative="1" as="geometry"/>
                </mxCell>
                <mxCell id="73" value="&lt;font style=&quot;font-size: 12px;&quot;&gt;ServiÃ§o Externo (Gateway de Pagamento)&lt;/font&gt;" style="rounded=1;whiteSpace=wrap;html=1;labelBackgroundColor=#fcfaff;strokeColor=#000000;fontSize=8;fontColor=#080808;fillColor=none;" parent="1" vertex="1">
                    <mxGeometry x="430.3782149712093" y="545.2" width="109.2380038387716" height="126.8" as="geometry"/>
                </mxCell>
                <mxCell id="74" style="edgeStyle=none;html=1;entryX=0.5;entryY=0;entryDx=0;entryDy=0;strokeColor=#0d0c0c;fontSize=8;fontColor=#080808;" parent="1" source="13" target="73" edge="1">
                    <mxGeometry relative="1" as="geometry"/>
                </mxCell>
                <mxCell id="88" style="edgeStyle=none;html=1;exitX=0.5;exitY=0;exitDx=0;exitDy=0;strokeColor=#0d0c0c;fontSize=13;fontColor=#080808;entryX=0.5;entryY=1;entryDx=0;entryDy=0;" parent="1" source="78" target="41" edge="1">
                    <mxGeometry relative="1" as="geometry">
                        <mxPoint x="287.383877159309" y="314.8466666666667" as="targetPoint"/>
                    </mxGeometry>
                </mxCell>
                <mxCell id="78" value="&lt;font style=&quot;font-size: 12px;&quot;&gt;Webhook URL&lt;br&gt;(NotificaÃ§Ã£o do Pagamento)&amp;nbsp;&lt;/font&gt;" style="rounded=1;whiteSpace=wrap;html=1;labelBackgroundColor=#fcfaff;strokeColor=#000000;fontSize=8;fontColor=#080808;fillColor=none;" parent="1" vertex="1">
                    <mxGeometry x="226.49712092130508" y="545.2" width="121.77351247600768" height="126.8" as="geometry"/>
                </mxCell>
                <mxCell id="87" style="edgeStyle=none;html=1;exitX=0;exitY=0.5;exitDx=0;exitDy=0;entryX=1;entryY=0.5;entryDx=0;entryDy=0;strokeColor=#0d0c0c;fontSize=13;fontColor=#080808;" parent="1" source="73" target="78" edge="1">
                    <mxGeometry relative="1" as="geometry"/>
                </mxCell>
                <mxCell id="83" value="" style="sketch=0;html=1;dashed=0;whitespace=wrap;fillColor=#2875E2;strokeColor=#ffffff;points=[[0.005,0.63,0],[0.1,0.2,0],[0.9,0.2,0],[0.5,0,0],[0.995,0.63,0],[0.72,0.99,0],[0.5,1,0],[0.28,0.99,0]];verticalLabelPosition=bottom;align=center;verticalAlign=top;shape=mxgraph.kubernetes.icon;prIcon=pv;labelBackgroundColor=#fcfaff;fontSize=8;fontColor=#080808;" parent="1" vertex="1">
                    <mxGeometry x="871.1804222648752" y="308.50666666666666" width="44.769673704414586" height="50.72" as="geometry"/>
                </mxCell>
                <mxCell id="85" value="&lt;font style=&quot;font-size: 20px;&quot;&gt;Cluster (Google Kubernetes Engine)&lt;/font&gt;" style="text;html=1;strokeColor=none;fillColor=none;align=center;verticalAlign=middle;whiteSpace=wrap;rounded=0;labelBackgroundColor=#fcfaff;fontSize=13;fontColor=#080808;" parent="1" vertex="1">
                    <mxGeometry x="400.2034548944338" y="41.17" width="398.27101727447223" height="63.4" as="geometry"/>
                </mxCell>
                <mxCell id="86" value="" style="sketch=0;html=1;verticalAlign=top;labelPosition=center;verticalLabelPosition=bottom;align=center;spacingTop=-6;fontSize=11;fontStyle=1;fontColor=#999999;shape=image;aspect=fixed;imageAspect=0;image=data:image/svg+xml,PHN2ZyB4bWxucz0iaHR0cDovL3d3dy53My5vcmcvMjAwMC9zdmciIHhtbG5zOnY9Imh0dHBzOi8vdmVjdGEuaW8vbmFubyIgd2lkdGg9IjMyOS45MjU5OTcyMzE3OTM4IiBoZWlnaHQ9IjM3OC4yODQ5OTAzMTEyNzg4IiB2aWV3Qm94PSIwIDAgODcuMjkyOTk5MjY3NTc4MTIgMTAwLjA4Nzk5NzQzNjUyMzQ0Ij4mI3hhOzxzdHlsZSB0eXBlPSJ0ZXh0L2NzcyI+JiN4YTsJLnN0MHtmaWxsOiNhZWNiZmE7fSYjeGE7CS5zdDF7ZmlsbDojNjY5ZGY2O30mI3hhOwkuc3Qye2ZpbGw6IzQyODVmNDt9JiN4YTs8L3N0eWxlPiYjeGE7CTxwYXRoIGNsYXNzPSJzdDAiIGQ9Ik00My43NTEgMEwwIDI1LjQ2NXYyLjU4OCA0Ni45Mmw0My43NTIgMjUuMTE1IDQzLjU0MS0yNS4xMjFWMjUuNDczem0yLjQzOCAxMS44NTNsMzIuMTAzIDE4Ljc4MlY2OS43N0w0My43MzkgODkuNzA1IDkgNjkuNzYyVjMwLjY0MWwzMi4xOS0xOC43MzZ2MTQuMTU0TDI0LjUwMyAzNi4xNTNsMTkuMTcyIDExLjUwMiAxOC44ODYtMTEuNTU0LTE2LjM3Mi0xMC4wMjR6Ii8+JiN4YTsJPHBhdGggY2xhc3M9InN0MSIgZD0iTTIyLjAyNSA0MC40OTZsLjE2NiAxOS4xNDMtMTMuMjQ3IDcuMzN2Mi43NDJsMi42MzcgMS41MTQgMTIuNjQ4LTYuOTk5IDE2Ljk2MSAxMC42MDJWNTEuOTkzeiIvPiYjeGE7CTxwYXRoIGNsYXNzPSJzdDIiIGQ9Ik02NS4zNDQgNDAuMjZMNDYuMTg5IDUxLjk3OXYyMi44NDdsMTYuODk5LTEwLjU3NiAxMi41MzkgNi45NzQgMi42MDktMS41MDV2LTIuNzY1bC0xMi43ODQtNy4xMTJ6Ii8+JiN4YTs8L3N2Zz4=;labelBackgroundColor=#fcfaff;strokeColor=#000000;fillColor=none;" parent="1" vertex="1">
                    <mxGeometry x="391.61712092130523" y="50.87560000000001" width="38.757201712188504" height="43.98942394333395" as="geometry"/>
                </mxCell>
                <mxCell id="89" value="&lt;font style=&quot;font-size: 12px;&quot;&gt;RequisiÃ§Ã£o HTTP&lt;/font&gt;" style="text;html=1;strokeColor=none;fillColor=none;align=center;verticalAlign=middle;whiteSpace=wrap;rounded=0;labelBackgroundColor=#fcfaff;fontSize=8;fontColor=#080808;flipV=0;flipH=1;direction=east;rotation=-90;" parent="1" vertex="1">
                    <mxGeometry x="196.05374280230328" y="372.2448" width="152.2168905950096" height="63.4" as="geometry"/>
                </mxCell>
                <mxCell id="90" value="&lt;font style=&quot;font-size: 12px;&quot;&gt;RequisiÃ§Ã£o HTTP&lt;/font&gt;" style="text;html=1;strokeColor=none;fillColor=none;align=center;verticalAlign=middle;whiteSpace=wrap;rounded=0;labelBackgroundColor=#fcfaff;fontSize=8;fontColor=#080808;flipV=0;flipH=1;direction=east;rotation=-90;" parent="1" vertex="1">
                    <mxGeometry x="390.1750479846449" y="372.2448" width="152.2168905950096" height="63.4" as="geometry"/>
                </mxCell>
            </root>
        </mxGraphModel>
    </diagram>
</mxfile>